:SAMPLES-PER-SECOND 30
:FULLY-SPECIFIED
:DEGREES
41
root  -4.94373 40.1563 18.2823 178.046 13.0292 175.846
RightUpLeg  2.45106 -7.08311 -6.80315
RightLeg  8.22523 -8.87218 -2.90419
RightFoot  -7.34589 -0.301931 7.21322
RightToes  -1.74624e-010 0 -3.6325e-017
Spine  -10.1166 -0.122914 -6.68861
Spine1  21.8909 -0.433842 2.80808
HEad  -6.5395 42.9549 -5.30274
LeftShoulder1  2.30475 -4.94111 -20.9004
LeftArm  18.5162 14.8698 -53.7224
LeftForeArm  35.9845 -77.3601 -101.802
LeftHand  0.0594023 5.72455 22.3364
RightShoulder  1.29947 1.67835 18.6317
RightArm  7.30981 -8.5501 58.4773
RightForeArm  1.44169 20.9294 6.13945
RightHand  -0.352255 1.64435 -5.97325
LeftUpLeg  -0.622346 -1.71021 -4.42089
LeftLeg  2.05206 10.3084 -0.577309
LeftFoot  -1.4042 -0.168797 2.07335
LeftToes  -5.82109e-011 1.10366e-010 -8.03124e-011
42
root  -4.93507 40.1554 18.2806 178.019 13.1066 175.828
RightUpLeg  2.45034 -7.06203 -6.79637
RightLeg  8.25243 -8.82021 -2.93314
RightFoot  -7.36275 -0.299304 7.18513
RightToes  -1.74624e-010 0 -3.6325e-017
Spine  -10.328 -0.136343 -6.73599
Spine1  22.0745 -0.441337 2.82642
HEad  -6.69622 42.8795 -5.42399
LeftShoulder1  2.32114 -5.02736 -20.8111
LeftArm  18.3589 14.9363 -53.7903
LeftForeArm  35.4165 -77.349 -101.838
LeftHand  0.152276 6.22824 21.91
RightShoulder  1.32627 1.76198 18.7507
RightArm  8.0307 -8.64736 58.4993
RightForeArm  0.72819 21.2938 5.92293
RightHand  -0.354427 1.6488 -6.00549
LeftUpLeg  -0.581515 -1.70882 -4.42562
LeftLeg  2.03524 10.3859 -0.574741
LeftFoot  -1.40601 -0.167478 2.0508
LeftToes  -5.82109e-011 1.10366e-010 -8.03124e-011
43
root  -4.92182 40.1549 18.2693 177.977 13.276 175.808
RightUpLeg  2.47475 -7.03035 -6.78707
RightLeg  8.25063 -8.68467 -2.95757
RightFoot  -7.377 -0.296612 7.15334
RightToes  -1.74624e-010 0 -3.6325e-017
Spine  -10.546 -0.0772856 -6.72765
Spine1  22.2293 -0.363074 2.8155
HEad  -6.41031 42.0349 -5.09526
LeftShoulder1  2.34773 -5.14071 -20.759
LeftArm  18.3044 15.0184 -53.7425
LeftForeArm  35.0013 -77.3328 -102
LeftHand  0.248491 6.78427 21.2132
RightShoulder  1.33465 1.78547 18.8008
RightArm  8.22825 -8.8238 58.572
RightForeArm  0.213352 21.5002 5.81102
RightHand  -0.344305 1.52812 -5.93059
LeftUpLeg  -0.48473 -1.67154 -4.41306
LeftLeg  1.97723 10.5162 -0.597747
LeftFoot  -1.41933 -0.165975 2.02571
LeftToes  -5.82109e-011 1.10366e-010 -8.03124e-011
44
root  -4.9092 40.1547 18.2569 177.88 13.3945 175.77
RightUpLeg  2.57315 -7.04593 -6.82615
RightLeg  8.24024 -8.53596 -2.95337
RightFoot  -7.39863 -0.295073 7.13623
RightToes  -1.74624e-010 0 -3.6325e-017
Spine  -10.5871 -0.0220036 -6.72425
Spine1  22.236 -0.286015 2.78511
HEad  -5.54609 39.8886 -4.22059
LeftShoulder1  2.35914 -5.19669 -20.7126
LeftArm  18.3209 15.0762 -53.69
LeftForeArm  34.925 -77.332 -101.996
LeftHand  0.267456 6.90918 20.9639
RightShoulder  1.32788 1.756 18.815
RightArm  8.03045 -9.0161 58.6646
RightForeArm  0.23785 21.4486 5.84339
RightHand  -0.337935 1.40656 -5.91745
LeftUpLeg  -0.321475 -1.65511 -4.43038
LeftLeg  1.89622 10.6204 -0.620051
LeftFoot  -1.42363 -0.165076 2.01034
LeftToes  -5.82109e-011 1.10366e-010 -8.03124e-011
45
root  -4.90122 40.1547 18.2529 177.797 13.351 175.737
RightUpLeg  2.68898 -7.10971 -6.8893
RightLeg  8.21706 -8.49623 -2.91133
RightFoot  -7.41229 -0.293886 7.1207
RightToes  -1.74624e-010 0 -3.6325e-017
Spine  -10.4981 -0.0482576 -6.7609
Spine1  22.1079 -0.289453 2.73398
HEad  -4.32941 36.201 -3.22047
LeftShoulder1  2.35209 -5.18806 -20.6547
LeftArm  18.3336 15.0939 -53.6992
LeftForeArm  35.1234 -77.3301 -102.074
LeftHand  0.245308 6.77675 21.095
RightShoulder  1.31736 1.71086 18.8338
RightArm  7.46955 -9.13071 58.7442
RightForeArm  1.0933 21.0493 6.07642
RightHand  -0.34004 1.48037 -5.89621
LeftUpLeg  -0.207146 -1.68389 -4.46899
LeftLeg  1.84679 10.6124 -0.614841
LeftFoot  -1.40666 -0.164495 2.00026
LeftToes  -5.82109e-011 1.10366e-010 -8.03124e-011
46
root  -4.89513 40.155 18.2577 177.819 13.2109 175.737
RightUpLeg  2.7107 -7.16617 -6.91159
RightLeg  8.18677 -8.5804 -2.85333
RightFoot  -7.40828 -0.291427 7.0809
RightToes  -1.74624e-010 0 -3.6325e-017
Spine  -10.4988 -0.137362 -6.84128
Spine1  22.0085 -0.354204 2.68218
HEad  -3.24063 31.2102 -2.58286
LeftShoulder1  2.34485 -5.16343 -20.6475
LeftArm  18.2234 15.0456 -53.7114
LeftForeArm  35.5202 -77.3086 -102.514
LeftHand  0.241956 6.76485 21.0135
RightShoulder  1.30825 1.67469 18.8351
RightArm  6.54507 -9.15511 58.8127
RightForeArm  2.43316 20.4439 6.45872
RightHand  -0.334537 1.67034 -5.66191
LeftUpLeg  -0.244816 -1.717 -4.47679
LeftLeg  1.85654 10.5115 -0.594493
LeftFoot  -1.38144 -0.163651 1.98643
LeftToes  -5.82109e-011 1.10366e-010 -8.03124e-011
47
root  -4.8874 40.1554 18.269 177.919 13.1031 175.755
RightUpLeg  2.61695 -7.18269 -6.88208
RightLeg  8.186 -8.69198 -2.81458
RightFoot  -7.40043 -0.287963 7.02039
RightToes  -1.74624e-010 0 -3.6325e-017
Spine  -10.6208 -0.224573 -6.98638
Spine1  22.0166 -0.427912 2.68215
HEad  -2.65569 25.7234 -2.38893
LeftShoulder1  2.34627 -5.15042 -20.7085
LeftArm  17.89 14.9371 -53.6904
LeftForeArm  36.0276 -77.2786 -103.097
LeftHand  0.25555 6.87113 20.6196
RightShoulder  1.30059 1.64848 18.8137
RightArm  5.72504 -9.16961 58.8318
RightForeArm  3.37174 20.0031 6.75507
RightHand  -0.312396 1.73411 -5.25419
LeftUpLeg  -0.390182 -1.71743 -4.44082
LeftLeg  1.90154 10.4053 -0.589593
LeftFoot  -1.36274 -0.163014 1.97621
LeftToes  -5.82109e-011 1.10366e-010 -8.03124e-011
48
root  -4.88014 40.156 18.2872 177.987 13.0557 175.757
RightUpLeg  2.50088 -7.19371 -6.86304
RightLeg  8.2417 -8.74056 -2.79792
RightFoot  -7.4078 -0.285375 6.96787
RightToes  -1.74624e-010 0 -3.6325e-017
Spine  -10.6777 -0.299408 -7.24017
Spine1  22.0736 -0.523916 2.7894
HEad  -2.6226 20.8355 -2.42957
LeftShoulder1  2.35065 -5.14166 -20.792
LeftArm  17.3926 14.7985 -53.6735
LeftForeArm  36.3711 -77.2675 -103.342
LeftHand  0.252409 6.87585 20.3445
RightShoulder  1.29438 1.62538 18.8061
RightArm  5.51047 -9.19391 58.7492
RightForeArm  3.5691 19.9054 6.82138
RightHand  -0.290064 1.63293 -4.95334
LeftUpLeg  -0.510282 -1.70636 -4.40986
LeftLeg  1.93851 10.3446 -0.603999
LeftFoot  -1.34231 -0.163359 1.98165
LeftToes  -5.82109e-011 1.10366e-010 -8.03124e-011
49
root  -4.87614 40.1568 18.3082 177.96 13.0913 175.721
RightUpLeg  2.43637 -7.22953 -6.90224
RightLeg  8.33643 -8.6575 -2.78296
RightFoot  -7.43404 -0.284759 6.93978
RightToes  -1.74624e-010 0 -3.6325e-017
Spine  -10.6241 -0.372255 -7.57624
Spine1  22.2005 -0.650146 2.97794
HEad  -2.88484 17.3882 -2.49488
LeftShoulder1  2.35827 -5.13869 -20.8961
LeftArm  16.9166 14.6252 -53.6611
LeftForeArm  36.2242 -77.2831 -103.074
LeftHand  0.235897 6.7861 20.2865
RightShoulder  1.28855 1.60239 18.8058
RightArm  5.61075 -9.12774 58.6144
RightForeArm  3.62205 19.9254 6.80244
RightHand  -0.281555 1.52629 -4.87884
LeftUpLeg  -0.513255 -1.70397 -4.41986
LeftLeg  1.91942 10.3787 -0.630322
LeftFoot  -1.30547 -0.164154 1.99451
LeftToes  -5.82109e-011 1.10366e-010 -8.03124e-011
50
root  -4.87297 40.1577 18.3227 177.871 13.3221 175.668
RightUpLeg  2.40182 -7.24046 -6.95645
RightLeg  8.42487 -8.39995 -2.78133
RightFoot  -7.46178 -0.285294 6.92277
RightToes  -1.74624e-010 0 -3.6325e-017
Spine  -10.6118 -0.412065 -7.85561
Spine1  22.4834 -0.729209 3.11151
HEad  -3.11519 15.617 -2.43288
LeftShoulder1  2.37132 -5.15031 -21.0179
LeftArm  16.5721 14.409 -53.6182
LeftForeArm  35.5867 -77.3045 -102.595
LeftHand  0.238005 6.81494 20.085
RightShoulder  1.28094 1.57835 18.7733
RightArm  5.52987 -8.92579 58.538
RightForeArm  3.84153 19.8648 6.83769
RightHand  -0.27979 1.46254 -4.87823
LeftUpLeg  -0.399371 -1.67265 -4.437
LeftLeg  1.81966 10.5847 -0.677913
LeftFoot  -1.26265 -0.163943 1.99215
LeftToes  -5.82109e-011 1.10366e-010 -8.03124e-011
51
root  -4.86815 40.1595 18.3314 177.789 13.7438 175.645
RightUpLeg  2.35338 -7.16342 -6.93726
RightLeg  8.46207 -8.06129 -2.82098
RightFoot  -7.45904 -0.285667 6.89579
RightToes  -1.74624e-010 0 -3.6325e-017
Spine  -10.6538 -0.414343 -7.97203
Spine1  22.8125 -0.725692 3.09588
HEad  -3.14605 15.1884 -2.19264
LeftShoulder1  2.37502 -5.1536 -21.0525
LeftArm  16.347 14.1978 -53.5746
LeftForeArm  34.8651 -77.3098 -102.342
LeftHand  0.26586 7.01075 19.7
RightShoulder  1.27318 1.55528 18.7314
RightArm  5.43593 -8.71076 58.5162
RightForeArm  3.74395 19.8644 6.83794
RightHand  -0.277647 1.36999 -4.86492
LeftUpLeg  -0.259787 -1.58262 -4.40145
LeftLeg  1.69835 10.9192 -0.74152
LeftFoot  -1.23993 -0.162307 1.96807
LeftToes  -5.82109e-011 1.10366e-010 -8.03124e-011
52
root  -4.86526 40.1619 18.3475 177.777 14.1297 175.689
RightUpLeg  2.27827 -7.0311 -6.81961
RightLeg  8.42359 -7.8365 -2.87442
RightFoot  -7.40215 -0.286432 6.86223
RightToes  -1.74624e-010 0 -3.6325e-017
Spine  -10.5937 -0.44972 -7.99164
Spine1  22.9527 -0.749628 3.02965
HEad  -3.00943 15.4902 -1.94024
LeftShoulder1  2.35798 -5.12892 -20.9253
LeftArm  16.2216 14.0357 -53.5814
LeftForeArm  34.4792 -77.2978 -102.446
LeftHand  0.289556 7.16156 19.5922
RightShoulder  1.26911 1.54327 18.7181
RightArm  5.67315 -8.6113 58.4633
RightForeArm  3.13616 20.0611 6.70857
RightHand  -0.274805 1.28029 -4.91334
LeftUpLeg  -0.235916 -1.474 -4.29758
LeftLeg  1.66982 11.1824 -0.781121
LeftFoot  -1.24312 -0.160511 1.94198
LeftToes  -5.82109e-011 1.10366e-010 -8.03124e-011
53
root  -4.86829 40.1641 18.3769 177.868 14.3429 175.787
RightUpLeg  2.15043 -6.92507 -6.66329
RightLeg  8.33239 -7.76582 -2.87991
RightFoot  -7.30272 -0.29132 6.84375
RightToes  -1.74624e-010 0 -3.6325e-017
Spine  -10.4431 -0.552395 -8.04884
Spine1  22.9057 -0.889068 3.07889
HEad  -2.84555 15.9719 -1.92039
LeftShoulder1  2.34406 -5.12657 -20.7612
LeftArm  16.1612 13.8866 -53.5955
LeftForeArm  34.5241 -77.2811 -102.721
LeftHand  0.281872 7.0879 19.8842
RightShoulder  1.26675 1.5499 18.6805
RightArm  5.90735 -8.59829 58.4002
RightForeArm  2.71232 20.2679 6.56403
RightHand  -0.272616 1.29085 -4.98538
LeftUpLeg  -0.396886 -1.39416 -4.15938
LeftLeg  1.76006 11.287 -0.778427
LeftFoot  -1.25344 -0.159801 1.93326
LeftToes  -5.82109e-011 1.10366e-010 -8.03124e-011
54
root  -4.87433 40.1664 18.4081 178.025 14.5466 175.881
RightUpLeg  1.94674 -6.85824 -6.53474
RightLeg  8.25328 -7.66585 -2.83631
RightFoot  -7.20277 -0.296415 6.83798
RightToes  -1.74624e-010 0 -3.6325e-017
Spine  -10.3775 -0.647501 -8.15076
Spine1  22.8912 -1.04893 3.22295
HEad  -2.75593 16.3704 -2.11959
LeftShoulder1  2.36285 -5.20742 -20.7223
LeftArm  16.0396 13.6981 -53.5459
LeftForeArm  34.7681 -77.2706 -102.944
LeftHand  0.250733 6.89402 20.0097
RightShoulder  1.26532 1.56485 18.5619
RightArm  5.6767 -8.58322 58.4249
RightForeArm  2.95952 20.2858 6.52958
RightHand  -0.273178 1.3687 -4.93399
LeftUpLeg  -0.639813 -1.33267 -4.03069
LeftLeg  1.86233 11.4036 -0.768334
LeftFoot  -1.25677 -0.159511 1.93155
LeftToes  -5.82109e-011 1.10366e-010 -8.03124e-011
55
root  -4.87764 40.1685 18.4294 178.14 14.9089 175.933
RightUpLeg  1.73153 -6.79035 -6.44946
RightLeg  8.22701 -7.40717 -2.80367
RightFoot  -7.13441 -0.299228 6.81601
RightToes  -1.74624e-010 0 -3.6325e-017
Spine  -10.3906 -0.674462 -8.19547
Spine1  22.9829 -1.09802 3.26504
HEad  -2.70742 16.6796 -2.26647
LeftShoulder1  2.39509 -5.32018 -20.7431
LeftArm  15.746 13.4765 -53.4897
LeftForeArm  34.7225 -77.2705 -102.949
LeftHand  0.235608 6.8448 19.5596
RightShoulder  1.26457 1.57337 18.4473
RightArm  5.31425 -8.56849 58.5159
RightForeArm  3.32261 20.2393 6.53845
RightHand  -0.274748 1.40242 -4.83204
LeftUpLeg  -0.788052 -1.26515 -3.9366
LeftLeg  1.88728 11.6895 -0.776555
LeftFoot  -1.25797 -0.157828 1.90871
LeftToes  -5.82109e-011 1.10366e-010 -8.03124e-011
